<svg width="52" height="52" viewBox="0 0 52 52" fill="none" xmlns="http://www.w3.org/2000/svg">
<g clip-path="url(#clip0_4_35)">
<path d="M13.3681 28.1756C15.4446 26.0989 15.3216 22.6091 11.7486 19.0361C8.45092 15.7384 4.0559 14.972 1.67924 14.8115C0.72841 14.7473 -0.0605274 15.5359 0.00366012 16.4866C0.164129 18.8632 0.930519 23.2584 4.22836 26.5563C4.92731 27.2552 5.62281 27.8208 6.30531 28.2644C6.62432 28.4717 6.62432 28.9348 6.30531 29.142C5.62281 29.5857 4.92731 30.1514 4.22836 30.8502C0.930418 34.1483 0.164129 38.5436 0.00366012 40.9201C-0.0605274 41.8708 0.728309 42.6592 1.67893 42.595C4.0555 42.4345 8.45072 41.6681 11.7486 38.3703C15.3216 34.7972 15.4446 31.3075 13.3681 29.2308C13.0762 28.939 13.0762 28.4674 13.3681 28.1756Z" fill="#F7D88B"/>
<path d="M13.3679 29.2308C13.2984 29.1612 13.2541 29.0324 13.2339 28.8867H10.3796C11.5138 34.2181 8.5171 39.133 5.03188 38.0358C2.86718 37.3542 2.67015 33.9356 3.87824 31.2158C0.876658 34.4661 0.158408 38.629 0.00362708 40.919C-0.0607635 41.8719 0.726752 42.6594 1.67961 42.595C4.05638 42.4344 8.45099 41.6678 11.7484 38.3704C15.3216 34.7972 15.4445 31.3075 13.3679 29.2308Z" fill="#F4CF7A"/>
<path d="M12.962 28.9374C12.7625 28.9374 12.5635 28.8596 12.414 28.7048L5.34602 21.3853C5.05382 21.0826 5.06225 20.6004 5.36481 20.3082C5.66756 20.0159 6.14968 20.0245 6.44188 20.327L13.5098 27.6465C13.802 27.9492 13.7936 28.4314 13.491 28.7236C13.3431 28.8663 13.1525 28.9374 12.962 28.9374Z" fill="#EAC268"/>
<path d="M5.89358 37.312C5.70315 37.312 5.51241 37.241 5.36454 37.0982C5.06198 36.806 5.05345 36.3238 5.34575 36.0212L12.4137 28.7017C12.7058 28.3992 13.1881 28.3907 13.4908 28.6829C13.7933 28.9751 13.8017 29.4573 13.5095 29.7599L6.44161 37.0794C6.29221 37.2342 6.09305 37.312 5.89358 37.312Z" fill="#EAC268"/>
<path d="M43.3843 16.7991C42.1869 12.6448 38.5416 9.85441 32.4749 9.23102C23.4637 8.30507 13.8028 10.3754 21.1686 17.4843L43.3843 16.7991Z" fill="#F7D88B"/>
<path d="M25.2455 11.8526C24.8614 11.6808 24.4108 11.8527 24.239 12.2368C24.0672 12.6208 24.2391 13.0713 24.6231 13.2432C26.2192 13.9576 27.2926 15.0994 27.8133 16.6369C27.9209 16.9543 28.2171 17.1544 28.5347 17.1544C28.6157 17.1544 28.6981 17.1414 28.7792 17.114C29.1776 16.979 29.3912 16.5467 29.2562 16.1482C28.5939 14.1925 27.2445 12.7474 25.2455 11.8526ZM36.8535 16.4943C36.6738 15.1555 35.1027 12.567 33.5929 11.5667C33.2421 11.3346 32.7695 11.4304 32.5372 11.781C32.3048 12.1317 32.4007 12.6044 32.7514 12.8368C33.8287 13.5506 35.216 15.7468 35.3434 16.6968C35.3948 17.0794 35.7219 17.3573 36.0974 17.3573C36.1312 17.3573 36.1654 17.3551 36.1997 17.3505C36.6167 17.2946 36.9093 16.9113 36.8535 16.4943Z" fill="#EAC268"/>
<path d="M23.703 9.41525C18.8453 10.3126 16.3238 12.8085 21.1686 17.4844L27.0449 17.3031C23.9438 15.5688 22.5417 10.9081 23.703 9.41525Z" fill="#F4CF7A"/>
<path d="M52 28.7032C52 37.8264 43.8681 42.9766 34.3323 42.9766C22.1877 42.9766 13.9576 36.8874 10.5526 30.3337C10.0226 29.3135 10.0226 28.0929 10.5526 27.0727C13.9576 20.519 22.1876 14.4298 34.3323 14.4298C43.8681 14.4298 52 19.5799 52 28.7032Z" fill="#F49E73"/>
<path d="M29.5878 23.5267C30.0086 23.5267 30.3495 23.1857 30.3495 22.765C30.3495 22.3444 30.0086 22.0033 29.5878 22.0033C28.9552 22.0033 28.4407 21.4887 28.4407 20.8562C28.4407 20.2236 28.9552 19.709 29.5878 19.709C30.0086 19.709 30.3495 19.368 30.3495 18.9473C30.3495 18.5266 30.0086 18.1856 29.5878 18.1856C28.1153 18.1856 26.9172 19.3836 26.9172 20.8562C26.9172 21.6036 27.2262 22.2798 27.7227 22.765C27.2263 23.2502 26.9172 23.9265 26.9172 24.6738C26.9172 26.1464 28.1153 27.3444 29.5878 27.3444C30.0086 27.3444 30.3495 27.0033 30.3495 26.5827C30.3495 26.162 30.0086 25.8209 29.5878 25.8209C28.9552 25.8209 28.4407 25.3063 28.4407 24.6738C28.4407 24.0414 28.9552 23.5267 29.5878 23.5267Z" fill="#EA8962"/>
<path d="M22.8116 27.3444C23.2322 27.3444 23.5733 27.0033 23.5733 26.5827C23.5733 26.162 23.2322 25.8209 22.8116 25.8209C22.179 25.8209 21.6644 25.3063 21.6644 24.6738C21.6644 24.0413 22.179 23.5267 22.8116 23.5267C23.2322 23.5267 23.5733 23.1857 23.5733 22.765C23.5733 22.3444 23.2322 22.0033 22.8116 22.0033C21.339 22.0033 20.141 23.2012 20.141 24.6738C20.141 25.4212 20.4499 26.0975 20.9465 26.5827C20.45 27.0678 20.141 27.7441 20.141 28.4915C20.141 29.9641 21.339 31.1621 22.8116 31.1621C23.2322 31.1621 23.5733 30.8211 23.5733 30.4004C23.5733 29.9797 23.2322 29.6387 22.8116 29.6387C22.179 29.6387 21.6644 29.1241 21.6644 28.4915C21.6644 27.859 22.179 27.3444 22.8116 27.3444Z" fill="#EA8962"/>
<path d="M35.2117 38.7976C33.7392 38.7976 32.5411 37.5996 32.5411 36.127C32.5411 34.6544 33.7392 33.4564 35.2117 33.4564C35.6325 33.4564 35.9734 33.7975 35.9734 34.2181C35.9734 34.6388 35.6325 34.9799 35.2117 34.9799C34.5792 34.9799 34.0646 35.4945 34.0646 36.127C34.0646 36.7595 34.5791 37.2741 35.2117 37.2741C35.6325 37.2741 35.9734 37.6152 35.9734 38.0359C35.9734 38.4565 35.6324 38.7976 35.2117 38.7976Z" fill="#EA8962"/>
<path d="M21.7812 16.9558C16.4165 19.3365 12.6066 23.1198 10.5528 27.0728C10.0227 28.093 10.0227 29.3137 10.5528 30.3338C13.9577 36.8875 22.1878 42.9767 34.3323 42.9767C37.2318 42.9767 40.0009 42.4996 42.4516 41.5804C15.2988 40.3607 15.1328 25.2345 21.7812 16.9558Z" fill="#EF9067"/>
<path d="M21.7805 36.7426C23.6563 38.6184 26.1731 39.1834 28.1286 37.2277C32.0009 33.3555 32.2625 28.9513 30.9171 27.6059C29.5716 26.2605 25.1675 26.5221 21.2953 30.3944C19.3396 32.35 19.9046 34.8667 21.7805 36.7426Z" fill="#F7D88B"/>
<path d="M25.2838 30.9303C24.9864 30.6328 24.5041 30.6328 24.2066 30.9303L20.4026 34.7343C20.5938 35.2015 20.8642 35.6571 21.2021 36.0892L25.2839 32.0075C25.5813 31.71 25.5813 31.2277 25.2838 30.9303ZM27.5928 33.2393C27.2953 32.9418 26.8131 32.9418 26.5155 33.2393L22.4338 37.321C22.866 37.6589 23.3216 37.9292 23.7888 38.1205L27.5929 34.3164C27.8903 34.019 27.8903 33.5367 27.5928 33.2393Z" fill="#EAC268"/>
<path d="M36.201 30.1569C37.4355 30.1569 38.4364 29.3598 38.4364 28.3766C38.4364 27.3933 37.4355 26.5963 36.201 26.5963C34.9664 26.5963 33.9656 27.3933 33.9656 28.3766C33.9656 29.3598 34.9664 30.1569 36.201 30.1569Z" fill="#F27281"/>
<path d="M48.3184 30.1569C49.553 30.1569 50.5538 29.3598 50.5538 28.3766C50.5538 27.3933 49.553 26.5963 48.3184 26.5963C47.0838 26.5963 46.083 27.3933 46.083 28.3766C46.083 29.3598 47.0838 30.1569 48.3184 30.1569Z" fill="#F27281"/>
<path d="M38.5675 27.2008C38.1468 27.2008 37.8058 26.8597 37.8058 26.439C37.8058 26.2723 37.6702 26.1366 37.5035 26.1366C37.3367 26.1366 37.2011 26.2723 37.2011 26.439C37.2011 26.8597 36.8602 27.2008 36.4394 27.2008C36.0186 27.2008 35.6777 26.8597 35.6777 26.439C35.6777 25.4323 36.4967 24.6132 37.5035 24.6132C38.5102 24.6132 39.3293 25.4322 39.3293 26.439C39.3293 26.8598 38.9882 27.2008 38.5675 27.2008Z" fill="#464D59"/>
<path d="M48.0793 27.2008C47.6585 27.2008 47.3176 26.8597 47.3176 26.439C47.3176 26.2723 47.1819 26.1366 47.0151 26.1366C46.8484 26.1366 46.7128 26.2723 46.7128 26.439C46.7128 26.8597 46.3718 27.2008 45.951 27.2008C45.5303 27.2008 45.1893 26.8597 45.1893 26.439C45.1893 25.4323 46.0083 24.6132 47.0151 24.6132C48.0219 24.6132 48.841 25.4322 48.841 26.439C48.841 26.8598 48.5001 27.2008 48.0793 27.2008Z" fill="#464D59"/>
<path d="M42.2593 28.9587C41.6065 28.9587 40.9858 28.6761 40.5562 28.1833C40.2798 27.8661 40.3129 27.385 40.63 27.1086C40.9471 26.8322 41.4282 26.8651 41.7048 27.1824C41.8448 27.3432 42.0469 27.4354 42.2593 27.4354C42.4716 27.4354 42.6737 27.3432 42.8137 27.1824C43.0902 26.8653 43.5711 26.8323 43.8885 27.1086C44.2056 27.385 44.2387 27.8661 43.9623 28.1833C43.5327 28.6761 42.9121 28.9587 42.2593 28.9587Z" fill="#464D59"/>
</g>
<defs>
<clipPath id="clip0_4_35">
<rect width="26" height="26" fill="white" transform="scale(2)"/>
</clipPath>
</defs>
</svg>
