<svg width="32" height="32" viewBox="0 0 32 32" fill="none" xmlns="http://www.w3.org/2000/svg">
<g clip-path="url(#clip0_5_81)">
<path d="M8.2265 17.3388C9.50438 16.0609 9.42869 13.9133 7.22988 11.7145C5.20056 9.68518 2.49594 9.21355 1.03338 9.11474C0.448252 9.07524 -0.0372476 9.56055 0.00225238 10.1456C0.101002 11.6081 0.572627 14.3129 2.60206 16.3423C3.03219 16.7724 3.46019 17.1205 3.88019 17.3935C4.0765 17.5211 4.0765 17.806 3.88019 17.9336C3.46019 18.2066 3.03219 18.5547 2.60206 18.9847C0.572565 21.0143 0.101002 23.7191 0.00225238 25.1816C-0.0372476 25.7666 0.44819 26.2518 1.03319 26.2123C2.49569 26.1136 5.20044 25.6419 7.22988 23.6125C9.42869 21.4137 9.50438 19.2661 8.2265 17.9882C8.04688 17.8086 8.04688 17.5184 8.2265 17.3388Z" fill="#F7D88B"/>
<path d="M8.22646 17.9882C8.18365 17.9454 8.15639 17.8661 8.14396 17.7764H6.38746C7.08546 21.0573 5.24133 24.0819 3.09658 23.4066C1.76446 22.9872 1.64321 20.8834 2.38664 19.2097C0.53952 21.2099 0.0975196 23.7717 0.00226961 25.1809C-0.0373554 25.7673 0.44727 26.2519 1.03364 26.2123C2.49627 26.1135 5.20064 25.6417 7.22983 23.6126C9.42871 21.4137 9.50433 19.2661 8.22646 17.9882Z" fill="#F4CF7A"/>
<path d="M7.97674 17.8076C7.85399 17.8076 7.73149 17.7597 7.63949 17.6645L3.28999 13.1602C3.11018 12.9739 3.11536 12.6772 3.30155 12.4973C3.48786 12.3175 3.78455 12.3227 3.96436 12.5089L8.31386 17.0132C8.49368 17.1995 8.48849 17.4962 8.3023 17.676C8.2113 17.7638 8.09399 17.8076 7.97674 17.8076Z" fill="#EAC268"/>
<path d="M3.62683 22.9612C3.50964 22.9612 3.39227 22.9176 3.30127 22.8297C3.11508 22.6499 3.10983 22.3531 3.28971 22.1669L7.63921 17.6626C7.81896 17.4764 8.11577 17.4712 8.30202 17.651C8.48821 17.8308 8.49339 18.1276 8.31358 18.3138L3.96408 22.8181C3.87214 22.9134 3.74958 22.9612 3.62683 22.9612Z" fill="#EAC268"/>
<path d="M26.698 10.3379C25.9612 7.78143 23.7179 6.06424 19.9846 5.68062C14.4392 5.11081 8.49402 6.38487 13.0268 10.7596L26.698 10.3379Z" fill="#F7D88B"/>
<path d="M15.5357 7.29396C15.2993 7.18821 15.0221 7.29402 14.9163 7.53034C14.8106 7.76665 14.9164 8.0439 15.1527 8.14971C16.1349 8.58934 16.7954 9.29196 17.1159 10.2381C17.1821 10.4335 17.3644 10.5566 17.5598 10.5566C17.6097 10.5566 17.6604 10.5486 17.7103 10.5317C17.9554 10.4486 18.0869 10.1826 18.0038 9.9374C17.5963 8.7339 16.7659 7.84459 15.5357 7.29396ZM22.6791 10.1503C22.5685 9.32646 21.6017 7.73359 20.6726 7.11802C20.4567 6.97515 20.1659 7.03409 20.0229 7.2499C19.8799 7.46571 19.9389 7.75658 20.1547 7.89958C20.8177 8.33883 21.6714 9.69034 21.7498 10.275C21.7814 10.5104 21.9827 10.6815 22.2138 10.6815C22.2346 10.6815 22.2556 10.6801 22.2768 10.6773C22.5334 10.6428 22.7134 10.407 22.6791 10.1503Z" fill="#EAC268"/>
<path d="M14.5864 5.79401C11.5971 6.34619 10.0454 7.88213 13.0268 10.7596L16.643 10.6481C14.7346 9.58082 13.8718 6.71269 14.5864 5.79401Z" fill="#F4CF7A"/>
<path d="M32 17.6635C32 23.2778 26.9957 26.4471 21.1275 26.4471C13.654 26.4471 8.58928 22.6999 6.49391 18.6669C6.16772 18.0391 6.16772 17.2879 6.49391 16.6601C8.58928 12.6271 13.6539 8.87988 21.1275 8.87988C26.9957 8.87988 32 12.0492 32 17.6635Z" fill="#F49E73"/>
<path d="M18.2078 14.478C18.4668 14.478 18.6766 14.2681 18.6766 14.0092C18.6766 13.7504 18.4668 13.5405 18.2078 13.5405C17.8185 13.5405 17.5019 13.2238 17.5019 12.8345C17.5019 12.4453 17.8185 12.1286 18.2078 12.1286C18.4668 12.1286 18.6766 11.9187 18.6766 11.6599C18.6766 11.401 18.4668 11.1911 18.2078 11.1911C17.3016 11.1911 16.5644 11.9284 16.5644 12.8345C16.5644 13.2945 16.7545 13.7106 17.0601 14.0092C16.7546 14.3078 16.5644 14.724 16.5644 15.1839C16.5644 16.09 17.3016 16.8273 18.2078 16.8273C18.4668 16.8273 18.6766 16.6174 18.6766 16.3585C18.6766 16.0997 18.4668 15.8898 18.2078 15.8898C17.8185 15.8898 17.5019 15.5731 17.5019 15.1839C17.5019 14.7947 17.8185 14.478 18.2078 14.478Z" fill="#EA8962"/>
<path d="M14.0378 16.8273C14.2967 16.8273 14.5066 16.6174 14.5066 16.3585C14.5066 16.0997 14.2967 15.8898 14.0378 15.8898C13.6486 15.8898 13.3319 15.5731 13.3319 15.1838C13.3319 14.7946 13.6486 14.478 14.0378 14.478C14.2967 14.478 14.5066 14.2681 14.5066 14.0092C14.5066 13.7503 14.2967 13.5405 14.0378 13.5405C13.1317 13.5405 12.3944 14.2777 12.3944 15.1838C12.3944 15.6438 12.5845 16.06 12.8901 16.3585C12.5846 16.6571 12.3944 17.0733 12.3944 17.5332C12.3944 18.4394 13.1317 19.1767 14.0378 19.1767C14.2967 19.1767 14.5066 18.9668 14.5066 18.7079C14.5066 18.449 14.2967 18.2392 14.0378 18.2392C13.6486 18.2392 13.3319 17.9225 13.3319 17.5332C13.3319 17.144 13.6486 16.8273 14.0378 16.8273Z" fill="#EA8962"/>
<path d="M21.6687 23.8754C20.7625 23.8754 20.0253 23.1382 20.0253 22.232C20.0253 21.3258 20.7625 20.5886 21.6687 20.5886C21.9276 20.5886 22.1375 20.7984 22.1375 21.0573C22.1375 21.3162 21.9276 21.5261 21.6687 21.5261C21.2795 21.5261 20.9628 21.8428 20.9628 22.232C20.9628 22.6213 21.2794 22.9379 21.6687 22.9379C21.9276 22.9379 22.1375 23.1478 22.1375 23.4067C22.1375 23.6656 21.9276 23.8754 21.6687 23.8754Z" fill="#EA8962"/>
<path d="M13.4038 10.4343C10.1025 11.8994 7.75791 14.2276 6.49403 16.6602C6.16784 17.288 6.16784 18.0392 6.49403 18.667C8.58941 22.7 13.654 26.4472 21.1276 26.4472C22.9119 26.4472 24.616 26.1536 26.1241 25.588C9.41465 24.8374 9.31253 15.529 13.4038 10.4343Z" fill="#EF9067"/>
<path d="M13.4034 22.6108C14.5577 23.7652 16.1065 24.1129 17.3099 22.9094C19.6929 20.5264 19.8539 17.8162 19.0259 16.9883C18.1979 16.1603 15.4877 16.3213 13.1048 18.7043C11.9013 19.9077 12.249 21.4564 13.4034 22.6108Z" fill="#F7D88B"/>
<path d="M15.5592 19.034C15.3762 18.851 15.0794 18.851 14.8964 19.034L12.5554 21.375C12.6731 21.6625 12.8395 21.9428 13.0474 22.2088L15.5593 19.697C15.7423 19.5139 15.7423 19.2171 15.5592 19.034ZM16.9802 20.455C16.7971 20.2719 16.5004 20.2719 16.3172 20.455L13.8054 22.9668C14.0714 23.1747 14.3517 23.3411 14.6392 23.4588L16.9802 21.1178C17.1632 20.9348 17.1632 20.638 16.9802 20.455Z" fill="#EAC268"/>
<path d="M22.2775 18.5581C23.0372 18.5581 23.6531 18.0676 23.6531 17.4625C23.6531 16.8574 23.0372 16.3669 22.2775 16.3669C21.5177 16.3669 20.9019 16.8574 20.9019 17.4625C20.9019 18.0676 21.5177 18.5581 22.2775 18.5581Z" fill="#F27281"/>
<path d="M29.7343 18.5581C30.4941 18.5581 31.11 18.0676 31.11 17.4625C31.11 16.8574 30.4941 16.3669 29.7343 16.3669C28.9746 16.3669 28.3587 16.8574 28.3587 17.4625C28.3587 18.0676 28.9746 18.5581 29.7343 18.5581Z" fill="#F27281"/>
<path d="M23.7339 16.7389C23.4749 16.7389 23.2651 16.529 23.2651 16.2702C23.2651 16.1675 23.1817 16.084 23.0791 16.084C22.9764 16.084 22.893 16.1675 22.893 16.2702C22.893 16.529 22.6832 16.7389 22.4243 16.7389C22.1653 16.7389 21.9555 16.529 21.9555 16.2702C21.9555 15.6506 22.4595 15.1465 23.0791 15.1465C23.6986 15.1465 24.2026 15.6505 24.2026 16.2702C24.2026 16.5291 23.9928 16.7389 23.7339 16.7389Z" fill="#464D59"/>
<path d="M29.5873 16.7389C29.3283 16.7389 29.1185 16.529 29.1185 16.2702C29.1185 16.1675 29.035 16.084 28.9324 16.084C28.8298 16.084 28.7463 16.1675 28.7463 16.2702C28.7463 16.529 28.5365 16.7389 28.2776 16.7389C28.0187 16.7389 27.8088 16.529 27.8088 16.2702C27.8088 15.6506 28.3128 15.1465 28.9324 15.1465C29.552 15.1465 30.056 15.6505 30.056 16.2702C30.056 16.5291 29.8462 16.7389 29.5873 16.7389Z" fill="#464D59"/>
<path d="M26.0057 17.8207C25.604 17.8207 25.222 17.6468 24.9577 17.3435C24.7875 17.1483 24.8079 16.8523 25.0031 16.6822C25.1982 16.5121 25.4943 16.5323 25.6645 16.7276C25.7507 16.8265 25.875 16.8833 26.0057 16.8833C26.1364 16.8833 26.2607 16.8265 26.3469 16.7276C26.517 16.5325 26.813 16.5122 27.0083 16.6822C27.2034 16.8523 27.2238 17.1483 27.0537 17.3435C26.7894 17.6468 26.4074 17.8207 26.0057 17.8207Z" fill="#464D59"/>
</g>
<defs>
<clipPath id="clip0_5_81">
<rect width="16" height="16" fill="white" transform="scale(2)"/>
</clipPath>
</defs>
</svg>
