<svg width="52" height="52" viewBox="0 0 52 52" fill="none" xmlns="http://www.w3.org/2000/svg">
<path d="M26 51.9991C40.3588 51.9991 52 40.3582 52 25.9996C52 11.641 40.3588 0 26 0C11.6412 0 0 11.641 0 25.9996C0 40.3582 11.6412 51.9991 26 51.9991Z" fill="#B7C904"/>
<path d="M26 43.7896C13.0411 43.7896 2.32768 34.2984 0.354421 21.8952C0.142316 23.2363 0 24.6006 0 26.0004C0 40.359 11.6412 52 26 52C40.3588 52 52 40.359 52 26.0004C52 24.6006 51.8577 23.2363 51.6456 21.8952C49.6723 34.2984 38.9589 43.7896 26 43.7896Z" fill="#9CAC03"/>
<path d="M47.0889 41.167C41.1417 38.6957 36.9475 32.8294 36.9475 25.9997C36.9475 19.17 41.1417 13.3037 47.0889 10.8324C46.5388 10.0674 45.9463 9.33945 45.3168 8.6402C38.7703 11.6904 34.2107 18.3148 34.2107 25.9997C34.2107 33.6846 38.7703 40.309 45.3168 43.3592C45.9449 42.66 46.5374 41.9306 47.0889 41.167Z" fill="#ECEFF1"/>
<path d="M6.68354 8.64041C6.05544 9.33966 5.46291 10.069 4.91144 10.8326C10.8586 13.3039 15.0528 19.1702 15.0528 25.9999C15.0528 32.8296 10.8586 38.6959 4.91144 41.1672C5.46154 41.9322 6.05407 42.6602 6.68354 43.3594C13.2301 40.3093 17.7896 33.6848 17.7896 25.9999C17.7896 18.315 13.2301 11.6906 6.68354 8.64041Z" fill="#ECEFF1"/>
<path d="M47.0888 41.1669C45.2879 40.4184 43.6499 39.3538 42.2391 38.0497C41.5193 38.6285 40.7708 39.169 39.9908 39.6699C41.5371 41.1792 43.3338 42.4354 45.3167 43.3591C45.9448 42.6598 46.5373 41.9305 47.0888 41.1669Z" fill="#E1E4E6"/>
<path d="M9.76222 38.0497C8.35001 39.3538 6.71338 40.4184 4.91254 41.1669C5.46264 41.9318 6.05517 42.6598 6.68464 43.3591C8.66748 42.4354 10.4642 41.1792 12.0105 39.6699C11.2305 39.169 10.4806 38.6285 9.76222 38.0497Z" fill="#E1E4E6"/>
</svg>
