<svg width="52" height="52" viewBox="0 0 52 52" fill="none" xmlns="http://www.w3.org/2000/svg">
<path d="M41.3184 18.0154V31.3964C41.3184 32.0232 40.9438 32.5892 40.3662 32.8329C36.2113 34.5917 31.6003 36.1904 26.5321 37.6291C26.393 37.6678 26.2486 37.6877 26.1053 37.6877C25.962 37.6877 25.8175 37.6678 25.6784 37.6291C20.6102 36.1904 15.9992 34.5917 11.8443 32.8329C11.2678 32.5892 10.8933 32.0231 10.8933 31.3964V18.4894L26.1053 18.253L41.3184 18.0154Z" fill="#365E7D"/>
<path d="M26.1053 18.253V37.6878C25.962 37.6878 25.8176 37.6679 25.6785 37.6292C20.6103 36.1905 15.9993 34.5918 11.8444 32.833C11.2679 32.5893 10.8934 32.0232 10.8934 31.3965V18.4894L26.1053 18.253Z" fill="#2B4D66"/>
<path d="M41.3183 18.5386V24.177C36.948 25.6993 32.3663 27.1474 27.5744 28.5212C26.5458 28.8162 25.4535 28.8162 24.425 28.5212C19.7104 27.1694 15.1999 25.7465 10.8934 24.2512V19.0125L41.3183 18.5386Z" fill="#2B4D66"/>
<path d="M50.5297 14.314C43.5078 11.4981 35.8559 8.90275 27.574 6.52789C26.5456 6.23305 25.4535 6.23305 24.4252 6.52789C16.1435 8.90275 8.49162 11.4981 1.46972 14.314C-0.49066 15.1001 -0.245587 17.6287 1.71479 18.4148C8.73669 21.2306 16.1435 23.5415 24.4254 25.9163C25.4537 26.2111 26.5458 26.7408 27.5742 26.4458C35.8561 24.071 43.5079 21.4757 50.5299 18.6598C52.49 17.8738 52.49 15.1002 50.5297 14.314Z" fill="#365E7D"/>
<path d="M28.1302 26.2482C28.1533 26.2545 28.1752 26.2608 28.1983 26.267C27.9911 26.3266 27.7829 26.3862 27.5747 26.4459C26.5462 26.741 25.4538 26.741 24.4254 26.4459C16.144 24.0708 8.49151 21.476 1.46981 18.6605C-0.489856 17.8736 -0.489856 15.1 1.46981 14.3142C1.63404 14.2482 1.79837 14.1823 1.96372 14.1164C0.925736 15.2401 1.21347 17.2291 2.82477 17.8747C9.84636 20.6913 19.8488 23.8731 28.1302 26.2482Z" fill="#2B4D66"/>
<path d="M38.5939 38.6343C38.1604 38.6343 37.8092 38.283 37.8092 37.8497V22.9811L25.6622 17.1954C25.271 17.009 25.1049 16.5408 25.2912 16.1495C25.4777 15.7582 25.946 15.592 26.3372 15.7785L38.9314 21.7772C39.2046 21.9073 39.3786 22.183 39.3786 22.4856V37.8496C39.3786 38.2829 39.0273 38.6343 38.5939 38.6343Z" fill="#F6E781"/>
<path d="M38.5938 37.3264C37.0169 37.3264 35.7386 38.6048 35.7386 40.1816V45.6929H41.449V40.1816C41.4491 38.6048 40.1707 37.3264 38.5938 37.3264Z" fill="#F6E781"/>
<path d="M39.525 37.4838C38.4057 37.8691 37.6018 38.9325 37.6018 40.1816V45.693H35.7386V40.1816C35.7386 38.6059 37.0171 37.3275 38.5928 37.3275C38.9193 37.3276 39.2333 37.382 39.525 37.4838Z" fill="#F1CB86"/>
</svg>
