<svg width="52" height="52" viewBox="0 0 52 52" fill="none" xmlns="http://www.w3.org/2000/svg">
<g clip-path="url(#clip0_4_59)">
<path d="M32.0936 24.2737H25.9999C25.3837 24.2737 24.8283 23.9024 24.5924 23.3332C24.3567 22.7639 24.487 22.1086 24.9227 21.6729L28.4158 18.1799H25.9999C25.1585 18.1799 24.4764 17.4978 24.4764 16.6565C24.4764 15.8151 25.1585 15.133 25.9999 15.133H32.0936C32.7098 15.133 33.2653 15.5042 33.5011 16.0735C33.7368 16.6428 33.6065 17.298 33.1708 17.7337L29.6777 21.2268H32.0936C32.935 21.2268 33.6171 21.9089 33.6171 22.7502C33.6171 23.5916 32.935 24.2737 32.0936 24.2737Z" fill="#4D588C"/>
<path d="M44.2811 12.0862H38.1873C37.5711 12.0862 37.0157 11.715 36.7799 11.1458C36.5441 10.5765 36.6744 9.92122 37.1101 9.48551L40.6033 5.99247H38.1873C37.346 5.99247 36.6639 5.31038 36.6639 4.46904C36.6639 3.62769 37.346 2.9456 38.1873 2.9456H44.2811C44.8972 2.9456 45.4527 3.31681 45.6885 3.88607C45.9242 4.45533 45.7939 5.11061 45.3582 5.54631L41.8651 9.03935H44.2811C45.1224 9.03935 45.8045 9.72144 45.8045 10.5628C45.8045 11.4041 45.1224 12.0862 44.2811 12.0862Z" fill="#4D588C"/>
<path d="M51.1232 25.2415C50.8236 25.1013 49.8476 24.8017 49.1143 25.9138C47.6173 28.1837 43.2593 33.4639 35.1404 33.4639C30.561 33.4639 26.4081 31.6074 23.3948 28.6052C20.3632 25.5878 18.4843 21.4136 18.4843 16.8078C18.4843 8.42587 24.2875 4.01402 26.0659 2.86231C26.8784 2.3352 27.0013 1.50646 26.7057 0.876775C26.4457 0.321231 25.878 -0.0240797 25.2625 0.00131082C18.1836 0.297872 11.707 3.20457 7.02605 8.18618C2.49538 13.0073 0 19.3153 0 25.9483C0 33.1349 2.91889 39.6511 7.63136 44.3686C12.3388 49.0811 18.8357 52 25.9998 52C32.639 52 38.9591 49.4924 43.7976 44.9384C48.7893 40.2401 51.7021 33.7574 51.9987 26.6847C52.0241 26.0712 51.6788 25.5025 51.1232 25.2415Z" fill="#FFCF73"/>
<path d="M51.9987 26.6847C51.7021 33.7574 48.7893 40.2401 43.7975 44.9384C38.9591 49.4924 32.6389 52 25.9998 52C18.8357 52 12.3387 49.0811 7.63135 44.3686L23.3948 28.6052C26.4081 31.6074 30.561 33.4639 35.1404 33.4639C43.2593 33.4639 47.6173 28.1837 49.1143 25.9138C49.8476 24.8017 50.8236 25.1013 51.1232 25.2415C51.6787 25.5025 52.0241 26.0712 51.9987 26.6847Z" fill="#FFB366"/>
</g>
<defs>
<clipPath id="clip0_4_59">
<rect width="26" height="26" fill="white" transform="scale(2)"/>
</clipPath>
</defs>
</svg>
