<svg width="32" height="32" viewBox="0 0 32 32" fill="none" xmlns="http://www.w3.org/2000/svg">
<path d="M28.92 12.6533C28.7753 12.2141 28.5119 11.8234 28.1589 11.5245C27.8059 11.2256 27.3771 11.0303 26.92 10.96L20.9067 10.04L18.24 4.45334C18.0364 4.02074 17.7139 3.65501 17.3101 3.39884C16.9064 3.14268 16.4381 3.00665 15.96 3.00665C15.4819 3.00665 15.0136 3.14268 14.6099 3.39884C14.2062 3.65501 13.8837 4.02074 13.68 4.45334L11.0133 10.04L5.00001 10.96C4.54238 11.0311 4.1132 11.227 3.7596 11.5261C3.40601 11.8252 3.14168 12.216 2.99564 12.6555C2.84959 13.095 2.82749 13.5662 2.93176 14.0174C3.03603 14.4687 3.26263 14.8825 3.58668 15.2133L8.01334 19.7467L6.97334 26.0667C6.89422 26.5342 6.95004 27.0145 7.13424 27.4514C7.31844 27.8883 7.6234 28.2636 8.01334 28.5333C8.43868 28.8338 8.94591 28.9967 9.46668 29C9.89171 28.9979 10.3092 28.8878 10.68 28.68L16 25.7867L21.24 28.68C21.6584 28.9141 22.1348 29.0239 22.6134 28.9967C23.092 28.9695 23.5529 28.8064 23.9421 28.5264C24.3312 28.2465 24.6324 27.8613 24.8104 27.4162C24.9883 26.9711 25.0356 26.4844 24.9467 26.0133L23.9067 19.6933L28.3333 15.16C28.6499 14.8351 28.8718 14.43 28.9752 13.9882C29.0786 13.5465 29.0595 13.085 28.92 12.6533Z" fill="#FFEA8D"/>
</svg>
